<svg width="1024" height="1024" viewBox="0 0 1024 1024" fill="none" xmlns="http://www.w3.org/2000/svg">
<path d="M854.764 532.156V591.69H803.167V640.906H726.566V591.69H515.417V490.482L672.588 376.175H803.167V532.156H854.764ZM726.566 532.156V437.694H710.293L587.652 521.836V532.156H726.566Z" fill="white"/>
<path d="M481.358 450.395H405.948C405.551 443.251 404.36 440.473 401.582 438.488C397.613 435.313 395.231 434.916 370.624 434.122C353.557 433.328 338.475 432.931 325.774 432.931C286.878 432.931 265.446 434.916 256.714 438.885C248.379 443.251 245.601 452.776 245.601 478.178C245.601 481.353 245.601 486.513 245.998 492.863C266.24 473.415 283.703 469.446 353.16 469.446C457.147 469.446 479.374 484.528 479.374 555.97C479.374 603.597 469.451 625.03 442.065 635.349C424.999 642.096 393.247 644.081 311.486 644.081C235.282 644.081 207.896 639.318 190.036 623.045C172.175 606.375 169 588.118 169 500.007C169 455.951 169.794 442.457 173.763 424.994C183.288 382.922 213.849 373 333.315 373C423.411 373 453.178 377.763 468.657 394.432C478.183 404.355 480.961 416.659 481.358 450.395ZM314.661 528.981C276.559 528.981 267.43 529.774 259.889 532.95C251.555 536.522 247.189 544.856 247.189 556.763C247.189 572.242 251.555 579.783 262.668 582.165C268.621 583.752 286.085 584.546 312.677 584.546C336.491 584.546 373.402 583.355 381.737 582.562C395.628 581.371 401.185 574.227 401.185 557.16C401.185 530.171 397.216 528.981 314.661 528.981Z" fill="white"/>
</svg>
