<svg width="1024" height="1024" viewBox="0 0 1024 1024" fill="none" xmlns="http://www.w3.org/2000/svg">
<path d="M865.764 545.156V604.69H814.167V653.906H737.566V604.69H526.417V503.482L683.588 389.175H814.167V545.156H865.764ZM737.566 545.156V450.694H721.293L598.652 534.836V545.156H737.566Z" fill="black"/>
<path d="M492.358 463.395H416.948C416.551 456.251 415.36 453.473 412.582 451.488C408.613 448.313 406.231 447.916 381.624 447.122C364.557 446.328 349.475 445.931 336.774 445.931C297.878 445.931 276.446 447.916 267.714 451.885C259.379 456.251 256.601 465.776 256.601 491.178C256.601 494.353 256.601 499.513 256.998 505.863C277.24 486.415 294.703 482.446 364.16 482.446C468.147 482.446 490.374 497.528 490.374 568.97C490.374 616.597 480.451 638.03 453.065 648.349C435.999 655.096 404.247 657.081 322.486 657.081C246.282 657.081 218.896 652.318 201.036 636.045C183.175 619.375 180 601.118 180 513.007C180 468.951 180.794 455.457 184.763 437.994C194.288 395.922 224.849 386 344.315 386C434.411 386 464.178 390.763 479.657 407.432C489.183 417.355 491.961 429.659 492.358 463.395ZM325.661 541.981C287.559 541.981 278.43 542.774 270.889 545.95C262.555 549.522 258.189 557.856 258.189 569.763C258.189 585.242 262.555 592.783 273.668 595.165C279.621 596.752 297.085 597.546 323.677 597.546C347.491 597.546 384.402 596.355 392.737 595.562C406.628 594.371 412.185 587.227 412.185 570.16C412.185 543.171 408.216 541.981 325.661 541.981Z" fill="black"/>
</svg>
