<svg width="1024" height="1024" viewBox="0 0 1024 1024" fill="none" xmlns="http://www.w3.org/2000/svg">
<path d="M284.784 266H263.408V256.912H262.256C258.8 264.592 251.632 267.536 236.4 267.536C222.32 267.536 214.896 265.36 209.392 259.856C203.888 254.224 202.736 249.616 202.736 233.104V205.456H225.392V233.104C225.392 241.936 226.032 244.752 228.464 247.056C231.152 249.616 234.608 250.384 243.184 250.384C251.248 250.384 255.344 249.488 258.16 247.056C261.36 244.24 262.128 241.04 262.128 229.776V205.456H284.784V266ZM294.87 180.624H317.526V266H294.87V180.624ZM334.529 191.504H357.185V205.456H393.025V221.712H357.185V239.376C357.185 246.032 357.313 246.928 358.337 248.464C359.489 250.512 361.793 251.408 366.145 251.408C370.753 251.408 373.313 250.512 374.337 248.336C375.105 246.928 375.233 246.416 375.233 240.144H395.969C395.713 251.664 394.817 255.376 391.361 259.856C386.753 265.616 379.841 267.536 364.225 267.536C349.761 267.536 343.873 266.256 339.393 261.904C336.193 258.704 334.913 255.376 334.657 248.464C334.529 247.44 334.529 244.368 334.529 239.376V221.712H322.625V205.456H334.529V191.504ZM401.87 205.456H424.526V266H401.87V205.456ZM401.87 180.624H424.526V197.648H401.87V180.624ZM434.745 205.456H456.121V214.544H457.273C460.601 207.248 468.281 203.92 481.721 203.92C496.313 203.92 504.377 207.632 509.241 216.592C513.081 207.504 520.505 203.92 535.353 203.92C547.897 203.92 555.321 206.224 560.569 211.728C565.817 217.104 566.969 222.096 566.969 237.712V266H544.313V237.712C544.185 227.6 543.929 226.448 541.753 224.272C539.449 221.968 535.609 220.944 528.953 220.944C522.169 220.944 517.945 222.096 515.513 224.784C512.953 227.6 512.185 231.184 512.185 241.04V266H489.529V237.712C489.529 228.24 489.273 226.576 487.097 224.272C485.049 221.968 481.081 220.944 474.553 220.944C467.769 220.944 463.289 222.096 460.729 224.656C458.169 227.216 457.401 231.056 457.401 241.04V266H434.745V205.456ZM599.913 224.4H577.257C577.897 215.568 580.841 210.832 587.881 207.376C593.129 204.944 603.625 203.792 621.801 203.792C641.641 203.792 646.249 204.688 651.369 209.808C655.209 213.904 656.489 218.512 656.489 229.52V266H634.729V257.68H633.833C631.913 261.648 629.481 263.824 625.385 265.488C621.673 267.024 615.913 267.536 601.193 267.536C581.097 267.536 574.825 263.056 574.825 248.72C574.825 237.84 578.921 231.824 587.753 229.52C593.257 227.984 599.145 227.6 615.785 227.6C626.281 227.6 629.353 228.496 632.937 232.336H633.961V229.136C633.961 219.664 632.169 218.384 618.473 218.384C602.217 218.384 600.553 218.896 599.913 224.4ZM615.017 240.4C601.193 240.4 597.481 241.808 597.481 246.8C597.481 251.664 600.937 253.072 613.097 253.072C629.097 253.072 633.577 251.536 633.577 246.16C633.577 243.728 632.169 241.936 629.609 241.04C628.201 240.528 624.617 240.4 615.017 240.4ZM673.154 191.504H695.81V205.456H731.65V221.712H695.81V239.376C695.81 246.032 695.938 246.928 696.962 248.464C698.114 250.512 700.418 251.408 704.77 251.408C709.378 251.408 711.938 250.512 712.962 248.336C713.73 246.928 713.858 246.416 713.858 240.144H734.594C734.338 251.664 733.442 255.376 729.986 259.856C725.378 265.616 718.466 267.536 702.85 267.536C688.386 267.536 682.498 266.256 678.018 261.904C674.818 258.704 673.538 255.376 673.282 248.464C673.154 247.44 673.154 244.368 673.154 239.376V221.712H661.25V205.456H673.154V191.504ZM798.961 246.672H821.489C819.825 263.44 811.505 267.536 779.121 267.536C761.585 267.536 753.265 266 747.761 261.904C741.873 257.424 740.081 251.408 740.081 235.92C740.081 219.664 741.873 213.648 748.273 209.168C754.161 205.072 761.713 203.792 781.425 203.792C801.905 203.792 809.073 205.072 814.577 209.552C819.953 214.032 822.001 220.816 822.001 234.512C822.001 235.28 822.001 238.096 821.873 240.656H762.737C762.737 246.8 763.377 248.848 765.553 250.512C767.985 252.304 772.721 253.072 780.913 253.072C795.377 253.072 798.065 252.048 798.961 246.672ZM762.737 228.24H799.217C799.089 223.504 798.833 222.352 797.425 220.944C795.377 218.768 790.769 217.872 781.809 217.872C766.577 217.872 762.993 219.792 762.737 228.24Z" fill="white"/>
<path d="M241.904 757.504H264.56V771.456H300.4V787.712H264.56V805.376C264.56 812.032 264.688 812.928 265.712 814.464C266.864 816.512 269.168 817.408 273.52 817.408C278.128 817.408 280.688 816.512 281.712 814.336C282.48 812.928 282.608 812.416 282.608 806.144H303.344C303.088 817.664 302.192 821.376 298.736 825.856C294.128 831.616 287.216 833.536 271.6 833.536C257.136 833.536 251.248 832.256 246.768 827.904C243.568 824.704 242.288 821.376 242.032 814.464C241.904 813.44 241.904 810.368 241.904 805.376V787.712H230V771.456H241.904V757.504ZM351.586 769.92C372.322 769.92 381.026 771.328 386.658 775.424C392.802 779.904 394.466 785.408 394.466 800.64C394.466 817.28 392.93 822.912 387.426 827.52C381.666 832.256 374.114 833.536 351.714 833.536C329.058 833.536 321.506 832.256 315.746 827.52C310.114 822.912 308.706 817.28 308.706 799.744C308.706 785.536 310.498 779.776 316.514 775.424C322.146 771.328 330.978 769.92 351.586 769.92ZM351.714 786.944C334.434 786.944 331.362 789.248 331.362 802.176C331.362 810.24 332.386 812.928 336.482 814.592C339.298 815.872 344.418 816.512 351.714 816.512C368.866 816.512 371.81 814.336 371.81 801.536C371.81 793.344 370.53 790.4 366.306 788.736C363.49 787.584 358.114 786.944 351.714 786.944ZM444.086 769.92C464.822 769.92 473.526 771.328 479.158 775.424C485.302 779.904 486.966 785.408 486.966 800.64C486.966 817.28 485.43 822.912 479.926 827.52C474.166 832.256 466.614 833.536 444.214 833.536C421.558 833.536 414.006 832.256 408.246 827.52C402.614 822.912 401.206 817.28 401.206 799.744C401.206 785.536 402.998 779.776 409.014 775.424C414.646 771.328 423.478 769.92 444.086 769.92ZM444.214 786.944C426.934 786.944 423.862 789.248 423.862 802.176C423.862 810.24 424.886 812.928 428.982 814.592C431.798 815.872 436.918 816.512 444.214 816.512C461.366 816.512 464.31 814.336 464.31 801.536C464.31 793.344 463.03 790.4 458.806 788.736C455.99 787.584 450.614 786.944 444.214 786.944ZM495.37 746.624H518.026V832H495.37V746.624ZM528.245 746.624H550.901V779.52H551.925C556.405 771.968 562.165 769.792 577.269 769.792C592.245 769.792 600.693 771.456 605.941 775.424C611.829 779.904 613.621 785.792 613.621 801.536C613.621 816.64 612.085 822.784 606.965 827.264C601.973 831.744 593.525 833.536 577.909 833.536C561.013 833.536 555.253 831.616 550.773 824.064H549.621V832H528.245V746.624ZM570.997 786.816C563.061 786.816 557.685 787.584 555.125 789.12C551.925 791.04 550.901 794.112 550.901 801.92C550.901 810.496 552.181 813.312 556.789 814.848C559.605 815.744 565.365 816.384 571.381 816.384C579.573 816.384 585.077 815.488 587.509 813.696C590.069 811.904 590.965 808.576 590.965 801.024C590.965 792.96 589.685 790.144 585.589 788.48C582.645 787.456 577.141 786.816 570.997 786.816ZM663.461 769.92C684.197 769.92 692.901 771.328 698.533 775.424C704.677 779.904 706.341 785.408 706.341 800.64C706.341 817.28 704.805 822.912 699.301 827.52C693.541 832.256 685.989 833.536 663.589 833.536C640.933 833.536 633.381 832.256 627.621 827.52C621.989 822.912 620.581 817.28 620.581 799.744C620.581 785.536 622.373 779.776 628.389 775.424C634.021 771.328 642.853 769.92 663.461 769.92ZM663.589 786.944C646.309 786.944 643.237 789.248 643.237 802.176C643.237 810.24 644.261 812.928 648.357 814.592C651.173 815.872 656.293 816.512 663.589 816.512C680.741 816.512 683.685 814.336 683.685 801.536C683.685 793.344 682.405 790.4 678.181 788.736C675.365 787.584 669.989 786.944 663.589 786.944ZM707.646 771.456H738.11L749.502 787.584H750.526L762.686 771.456H791.742L767.422 799.488L794.302 832H765.246L750.782 811.52H749.63L734.782 832H706.75L732.734 800.768L707.646 771.456Z" fill="white"/>
</svg>
